<svg xmlns="http://www.w3.org/2000/svg" xmlns:xlink="http://www.w3.org/1999/xlink" width="500" zoomAndPan="magnify" viewBox="0 0 375 374.999991" height="500" preserveAspectRatio="xMidYMid meet" version="1.0"><defs><g/><clipPath id="db8ec4eb96"><rect x="0" width="366" y="0" height="74"/></clipPath></defs><g transform="matrix(1, 0, 0, 1, 5, 143)"><g clip-path="url(#db8ec4eb96)"><g fill="#ffffff" fill-opacity="1"><g transform="translate(0.82429, 57.857641)"><g><path d="M 49.078125 -12.578125 L 39.203125 -51.203125 L 9.65625 -51.203125 L 9.65625 -40.015625 L 14.40625 -38.546875 L 6.953125 -12.578125 L 1.3125 -11.125 L 1.3125 0 L 23.265625 0 L 23.265625 -11.125 L 19.671875 -12.578125 L 20.921875 -17.109375 L 31.96875 -17.109375 L 33.28125 -12.578125 L 29.40625 -11.125 L 29.40625 0 L 55.375 0 L 55.375 -11.125 Z M 26.25 -37.375 L 29.546875 -25.890625 L 23.046875 -25.890625 Z M 26.25 -37.375 "/></g></g></g><g fill="#ffffff" fill-opacity="1"><g transform="translate(57.502028, 57.857641)"><g><path d="M 56.6875 -40.015625 L 56.6875 -51.203125 L 32.25 -51.203125 L 32.25 -40.015625 L 35.84375 -38.546875 L 24.421875 -28.59375 L 24.421875 -38.546875 L 27.9375 -40.015625 L 27.9375 -51.203125 L 3.21875 -51.203125 L 3.21875 -40.015625 L 8.78125 -38.546875 L 8.78125 -12.578125 L 3.21875 -11.125 L 3.21875 0 L 28.09375 0 L 28.09375 -11.125 L 24.421875 -12.578125 L 24.421875 -17.921875 L 30.28125 -22.8125 L 35.984375 -12.578125 L 32.328125 -11.125 L 32.328125 0 L 56.6875 0 L 56.6875 -11.125 L 51.484375 -12.578125 L 41.328125 -31.671875 L 49.59375 -38.546875 Z M 56.6875 -40.015625 "/></g></g></g><g fill="#ffffff" fill-opacity="1"><g transform="translate(116.227472, 57.857641)"><g><path d="M 49.078125 -12.578125 L 39.203125 -51.203125 L 9.65625 -51.203125 L 9.65625 -40.015625 L 14.40625 -38.546875 L 6.953125 -12.578125 L 1.3125 -11.125 L 1.3125 0 L 23.265625 0 L 23.265625 -11.125 L 19.671875 -12.578125 L 20.921875 -17.109375 L 31.96875 -17.109375 L 33.28125 -12.578125 L 29.40625 -11.125 L 29.40625 0 L 55.375 0 L 55.375 -11.125 Z M 26.25 -37.375 L 29.546875 -25.890625 L 23.046875 -25.890625 Z M 26.25 -37.375 "/></g></g></g><g fill="#ffffff" fill-opacity="1"><g transform="translate(172.90521, 57.857641)"><g><path d="M 45.203125 -42.859375 L 35.25 -51.203125 L 12.875 -51.203125 L 2.921875 -42.859375 L 2.921875 -28.890625 L 11.625 -21.71875 L 29.1875 -18.796875 L 30.578125 -17.546875 L 30.578125 -14.109375 L 28.75 -12.578125 L 18.0625 -12.578125 L 16.609375 -17.921875 L 2.921875 -17.921875 L 2.921875 -8.625 L 13.3125 0 L 35.328125 0 L 45.78125 -8.625 L 45.78125 -23.265625 L 37.234375 -29.921875 L 19.609375 -32.84375 L 18 -34.078125 L 18 -37.078125 L 19.890625 -38.546875 L 30.0625 -38.546875 L 31.53125 -33.203125 L 45.203125 -33.203125 Z M 45.203125 -42.859375 "/></g></g></g><g fill="#ffffff" fill-opacity="1"><g transform="translate(221.68462, 57.857641)"><g><path d="M 46.296875 -9.140625 L 46.296875 -42.28125 L 35.625 -51.203125 L 13.890625 -51.203125 L 3.21875 -42.28125 L 3.21875 -9.140625 L 14.265625 0 L 35.1875 0 C 37.03125 -1.507812 38.878906 -3.03125 40.734375 -4.5625 C 42.585938 -6.101562 44.441406 -7.628906 46.296875 -9.140625 Z M 29.25 -38.546875 L 31.234375 -37.015625 L 31.234375 -14.265625 L 29.1875 -12.578125 L 20.328125 -12.578125 L 18.28125 -14.265625 L 18.28125 -37.015625 L 20.265625 -38.546875 Z M 29.25 -38.546875 "/></g></g></g><g fill="#ffffff" fill-opacity="1"><g transform="translate(271.19536, 57.857641)"><g><path d="M 55.375 -40.015625 L 55.375 -51.203125 L 33.359375 -51.203125 L 33.359375 -40.015625 L 36.796875 -38.546875 L 30.359375 -16.234375 L 23.625 -38.546875 L 27.203125 -40.015625 L 27.203125 -51.203125 L 1.3125 -51.203125 L 1.3125 -40.015625 L 6.140625 -38.546875 L 17.84375 0 L 38.03125 0 L 50.390625 -38.546875 Z M 55.375 -40.015625 "/></g></g></g><g fill="#ffffff" fill-opacity="1"><g transform="translate(327.873116, 57.857641)"><g><path d="M 31.15625 -40.015625 L 31.15625 -51.203125 L 4.96875 -51.203125 L 4.96875 -40.015625 L 10.53125 -38.546875 L 10.53125 -12.578125 L 4.96875 -11.125 L 4.96875 0 L 31.15625 0 L 31.15625 -11.125 L 25.59375 -12.578125 L 25.59375 -38.546875 Z M 31.15625 -40.015625 "/></g></g></g></g></g></svg>